<svg xmlns="http://www.w3.org/2000/svg" xmlns:xlink="http://www.w3.org/1999/xlink" version="1.1" x="0px" y="0px" width="210.167px" height="21.943px" viewBox="0 0 210.167 21.943" enable-background="new 0 0 210.167 21.943" xml:space="preserve"><g><path fill="#FFFFFF" d="M6.301 21.944h-6.07v-5.278h5.377c1.484 0 3.002-0.659 3.002-2.375c0-0.627-0.198-1.154-0.495-1.683 C7.291 11.2 5.7 9.5 4.7 8.319c-0.759-0.891-1.55-1.781-2.177-2.737C1.814 4.6 1.3 3.2 1.3 2 c0-0.692 0.099-1.385 0.231-2.078h6.17C7.653 0.4 7.6 0.9 7.6 1.358c0 3.2 7.3 6.9 7.3 13 C14.878 19.4 11.1 21.9 6.3 21.944z"/><path fill="#FFFFFF" d="M27.976 21.944c-3.662 0-6.763-0.957-9.171-3.795c-1.649-1.944-2.573-4.552-2.573-7.125 c0-2.605 0.957-5.246 2.606-7.258c2.474-3.002 5.608-3.827 9.369-3.827h2.738v5.278h-2.21c-1.814 0-3.332 0.297-4.618 1.6 c-1.056 1.09-1.617 2.606-1.617 4.092c0 1.5 0.5 2.9 1.6 3.958c1.418 1.5 3 1.7 4.9 1.748h1.946v5.278 L27.976 21.944L27.976 21.944z"/><path fill="#FFFFFF" d="M32.927 5.218V-0.06h14.812v5.278H32.927z M32.927 21.944V8.417h14.812v5.277h-8.775v2.97h8.775v5.278 L32.927 21.944L32.927 21.944z"/><path fill="#FFFFFF" d="M61.628 21.944V7.494c0-1.749-0.66-2.276-2.375-2.276h-2.837v16.726h-6.037V-0.061h9.501 c5.18 0 7.8 1.8 7.8 7.259v14.746H61.628z"/><path fill="#FFFFFF" d="M70.34 5.218V-0.06h14.812v5.278H70.34z M70.34 21.944V8.417h14.812v5.277h-8.775v2.97h8.775v5.278 L70.34 21.944L70.34 21.944z"/><path fill="#FFFFFF" d="M105.707 21.944V7.857c0-2.013-0.496-2.639-2.541-2.639h-9.337v16.726h-6.036V-0.061h15.57 c2.441 0 4.751-0.032 6.6 1.781c1.615 1.6 1.8 3.8 1.8 5.905v14.317L105.707 21.944L105.707 21.944z M96.997 21.944V8.417 h5.575v13.525L96.997 21.944L96.997 21.944z"/><path fill="#FFFFFF" d="M112.669 21.944l4.453-13.525h5.477l-2.342 8.247h5.641L119.927-0.06h6.531l6.896 22.004H112.669z"/><path fill="#FFFFFF" d="M145.528 21.944c-3.661 0-6.763-0.957-9.171-3.795c-1.648-1.944-2.572-4.552-2.572-7.125 c0-2.605 0.957-5.246 2.605-7.258c2.474-3.002 5.607-3.827 9.369-3.827h2.738v5.278h-2.211c-1.814 0-3.332 0.297-4.619 1.6 c-1.056 1.088-1.615 2.605-1.615 4.091c0 1.5 0.5 2.9 1.6 3.958c1.419 1.5 3 1.7 4.9 1.748h1.947v5.278h-2.97 V21.944z"/><path fill="#FFFFFF" d="M157.307 13.696v8.248h-6.037V-0.061h6.037v8.479h7.456v5.277L157.307 13.696L157.307 13.696z"/><path fill="#FFFFFF" d="M166.28 5.218V-0.06h6.037v5.278H166.28z M166.28 21.944V8.417h6.037v13.525L166.28 21.944L166.28 21.944z"/><path fill="#FFFFFF" d="M186.207 21.944V7.494c0-1.749-0.66-2.276-2.375-2.276h-2.838v16.726h-6.037V-0.061h9.502 c5.18 0 7.8 1.8 7.8 7.259v14.746H186.207z"/><path fill="#FFFFFF" d="M194.917 5.218V-0.06h14.812v5.278H194.917z M194.917 21.944V8.417h14.812v5.277h-8.775v2.97h8.775v5.278 L194.917 21.944L194.917 21.944z"/></g></svg>